<svg xmlns="http://www.w3.org/2000/svg" xmlns:xlink="http://www.w3.org/1999/xlink" viewBox="0 0 308.69 311.51"><defs><linearGradient id="a" x1="224.68" y1="25.66" x2="224.68" y2="84.62" gradientTransform="matrix(1, 0, 0, -1, -70.33, 84.62)" gradientUnits="userSpaceOnUse"><stop offset="0" stop-color="#282828"/><stop offset="0.23" stop-color="#414141"/><stop offset="0.48" stop-color="#545454"/><stop offset="0.74" stop-color="#606060"/><stop offset="1" stop-color="#646464"/></linearGradient><linearGradient id="d" x1="-1126.17" y1="7.92" x2="-1069.56" y2="7.92" gradientTransform="translate(-817.5 84.62) rotate(180)" gradientUnits="userSpaceOnUse"><stop offset="0" stop-color="#646464"/><stop offset="0.51" stop-color="#616161"/><stop offset="0.82" stop-color="#595959"/><stop offset="1" stop-color="#505050"/></linearGradient><linearGradient id="g" x1="297.46" y1="255.04" x2="297.46" y2="314" gradientTransform="matrix(1, 0, 0, -1, 0, 314)" xlink:href="#a"/><linearGradient id="h" x1="-1126.19" y1="38.56" x2="-1069.58" y2="38.56" xlink:href="#d"/><linearGradient id="m" x1="-1126.19" y1="-17.88" x2="-1069.58" y2="-17.88" xlink:href="#d"/><linearGradient id="n" x1="-1407.89" y1="454.36" x2="-1407.89" y2="513.32" gradientTransform="matrix(-1, 0, 0, 1, -1099.4, -201.8)" xlink:href="#a"/><linearGradient id="o" x1="-1253.73" y1="454.36" x2="-1253.73" y2="513.32" gradientTransform="matrix(-1, 0, 0, 1, -1099.4, -201.8)" xlink:href="#a"/><linearGradient id="p" x1="352.23" y1="437.62" x2="408.84" y2="437.62" gradientTransform="translate(-352.23 -201.8)" xlink:href="#d"/><linearGradient id="q" x1="-1110.63" y1="454.36" x2="-1110.63" y2="513.32" gradientTransform="matrix(-1, 0, 0, 1, -1099.4, -201.8)" xlink:href="#a"/><linearGradient id="r" x1="352.22" y1="467.77" x2="408.83" y2="467.77" gradientTransform="translate(-352.22 -201.8)" xlink:href="#d"/><linearGradient id="s" x1="352.22" y1="411.78" x2="408.83" y2="411.78" gradientTransform="translate(-352.23 -201.8)" xlink:href="#d"/><linearGradient id="t" x1="-1408.08" y1="479.49" x2="-1351.47" y2="479.49" gradientTransform="matrix(-1, 0, 0, 1, -1099.4, -201.8)" xlink:href="#d"/><linearGradient id="u" x1="-1408.08" y1="437.23" x2="-1351.47" y2="437.23" gradientTransform="matrix(-1, 0, 0, 1, -1099.4, -201.8)" xlink:href="#d"/><linearGradient id="v" x1="-1396.49" y1="454.36" x2="-1396.49" y2="513.32" gradientTransform="matrix(-1, 0, 0, 1, -1099.4, -201.8)" xlink:href="#a"/><linearGradient id="w" x1="-1408.08" y1="467.48" x2="-1351.47" y2="467.48" gradientTransform="matrix(-1, 0, 0, 1, -1099.4, -201.8)" xlink:href="#d"/><linearGradient id="x" x1="-1408.08" y1="411.74" x2="-1351.47" y2="411.74" gradientTransform="matrix(-1, 0, 0, 1, -1099.4, -201.8)" xlink:href="#d"/><linearGradient id="y" x1="70.33" y1="50.31" x2="70.33" y2="50.31" gradientTransform="matrix(1, 0, 0, -1, -70.33, 84.62)" xlink:href="#d"/><linearGradient id="z" x1="70.33" y1="7.53" x2="126.94" y2="7.53" gradientTransform="matrix(1, 0, 0, -1, -70.33, 84.62)" xlink:href="#d"/><linearGradient id="aa" x1="70.33" y1="-17.88" x2="126.94" y2="-17.88" gradientTransform="matrix(1, 0, 0, -1, -70.33, 84.62)" xlink:href="#d"/><linearGradient id="ab" x1="81.94" y1="25.66" x2="81.94" y2="84.62" xlink:href="#a"/><linearGradient id="ae" x1="70.33" y1="38.29" x2="126.94" y2="38.29" gradientTransform="matrix(1, 0, 0, -1, -70.33, 84.62)" xlink:href="#d"/></defs><title>icon-logo</title><path d="M46.81,108.93,34.67,96.08H15.11v23.19H47.67a37.86,37.86,0,0,1-1-8.42C46.76,110.21,46.78,109.62,46.81,108.93Z" fill="#323232"/><path d="M38.72,0C17.46,0,.72,12.77,0,33.69L23.18,58.11V38.73A15.38,15.38,0,0,1,38.39,23.18H286.24V57.33l22.43-23.71V1Z" fill="url(#a)"/><path d="M38.72,0C17.46,0,.72,12.77,0,33.69L23.18,58.11V38.73A15.38,15.38,0,0,1,38.39,23.18H286.24V57.33l22.43-23.71V1Z" fill="url(#a)"/><path d="M38.72,0C17.46,0,.72,12.77,0,33.69L23.18,58.11V38.73A15.38,15.38,0,0,1,38.39,23.18H286.24V57.33l22.43-23.71V1Z" fill="url(#a)"/><path d="M261.92,110.85a37.88,37.88,0,0,1-.95,8.42h32.59V96.08H274.05l-12.18,12.85C261.9,109.62,261.92,110.21,261.92,110.85Z" fill="#323232"/><path d="M286.24,57.33,255.5,89.75a38.28,38.28,0,0,1,3.42,6.33h15.13l34.62-36.53V58.46l-22.44-1Z" fill="url(#d)"/><path d="M286.24,57.33,255.5,89.75a38.28,38.28,0,0,1,3.42,6.33h15.13l34.62-36.53V58.46l-22.44-1Z" fill="url(#d)"/><path d="M286.24,57.33,255.5,89.75a38.28,38.28,0,0,1,3.42,6.33h15.13l34.62-36.53V58.46l-22.44-1Z" fill="url(#d)"/><polygon points="286.24 57.45 308.69 58.46 308.69 33.65 286.24 57.33 286.24 57.45" fill="url(#g)"/><polygon points="286.24 57.45 308.69 58.46 308.69 33.65 286.24 57.33 286.24 57.45" fill="url(#h)"/><polygon points="286.24 57.45 308.69 58.46 308.69 33.65 286.24 57.33 286.24 57.45" fill="url(#g)"/><polygon points="286.24 57.45 308.69 58.46 308.69 33.65 286.24 57.33 286.24 57.45" fill="url(#h)"/><polygon points="286.24 57.45 308.69 58.46 308.69 33.65 286.24 57.33 286.24 57.45" fill="url(#g)"/><polygon points="286.24 57.45 308.69 58.46 308.69 33.65 286.24 57.33 286.24 57.45" fill="url(#h)"/><path d="M261.87,108.93l12.18-12.85H258.92A37.73,37.73,0,0,1,261.87,108.93Z" fill="#323232"/><path d="M261.87,108.93l12.18-12.85H258.92A37.73,37.73,0,0,1,261.87,108.93Z" fill="url(#m)"/><polygon points="308.69 252.56 308.29 252.56 308.69 252.98 308.69 252.56" fill="url(#n)"/><path d="M285.5,272.79a15.38,15.38,0,0,1-15.21,15.55H22.44V255.2L0,278.88v31.63l270,1c20.94,0,37.5-12.37,38.66-32.72L285.5,254.42Z" fill="url(#o)"/><path d="M261.76,203.48l12.29,13h19.51V193.26H261.31a38.39,38.39,0,0,1,.61,6.77C261.92,201.2,261.86,202.35,261.76,203.48Z" fill="#323232"/><path d="M46.76,200a38.39,38.39,0,0,1,.61-6.77H15.11v23.18H34.67l12.29-13A25.21,25.21,0,0,1,46.76,200Z" fill="#323232"/><path d="M22.44,255.2l31.4-33.12a37.68,37.68,0,0,1-3.34-5.64H34.67L0,253v.08l22.44,1Z" fill="url(#p)"/><polygon points="22.45 254.07 0 253.06 0 278.88 22.45 255.2 22.45 254.07" fill="url(#q)"/><polygon points="22.45 254.07 0 253.06 0 278.88 22.45 255.2 22.45 254.07" fill="url(#r)"/><path d="M46.92,203.48l-12.29,13H50.5A37.54,37.54,0,0,1,46.92,203.48Z" fill="#323232"/><path d="M46.92,203.48l-12.29,13H50.5A37.54,37.54,0,0,1,46.92,203.48Z" fill="url(#s)"/><path d="M308.67,278.88V276.5c0,.78,0,1.54-.07,2.3Z" fill="url(#t)"/><path d="M254.84,222.08l30.66,32.34v-1.86h22.78l-34.23-36.12H258.18A37.68,37.68,0,0,1,254.84,222.08Z" fill="url(#u)"/><path d="M285.5,254.42l23.11,24.38c0-.76.07-1.52.07-2.3V253l-.4-.42H285.5Z" fill="url(#v)"/><path d="M285.5,254.42l23.11,24.38c0-.76.07-1.52.07-2.3V253l-.4-.42H285.5Z" fill="url(#w)"/><path d="M258.18,216.44h15.87l-12.29-13A37.54,37.54,0,0,1,258.18,216.44Z" fill="#323232"/><path d="M258.18,216.44h15.87l-12.29-13A37.54,37.54,0,0,1,258.18,216.44Z" fill="url(#x)"/><path d="M0,33.62v0Z" fill="url(#y)"/><path d="M53.18,89.75l-30-31.64V59H0v.59L34.67,96.08H49.8A38.83,38.83,0,0,1,53.18,89.75Z" fill="url(#z)"/><path d="M49.76,96.08H34.67l12.18,12.85A37.67,37.67,0,0,1,49.76,96.08Z" fill="#323232"/><path d="M49.76,96.08H34.67l12.18,12.85A37.67,37.67,0,0,1,49.76,96.08Z" fill="url(#aa)"/><path d="M23.18,58.11,0,33.69V59H23.18Z" fill="url(#ab)"/><path d="M23.18,58.11,0,33.69V59H23.18Z" fill="url(#ab)"/><path d="M23.18,58.11,0,33.69V59H23.18Z" fill="url(#ab)"/><path d="M23.18,58.11,0,33.69V59H23.18Z" fill="url(#ae)"/><path d="M115.37,85.47A10.75,10.75,0,1,1,125.77,72h20.11a27.9,27.9,0,1,0-55.53,5.49,28.53,28.53,0,0,0,1.4,6.38,27.9,27.9,0,0,0-28.66,44.61,27.91,27.91,0,0,0,.31,53.6,27.9,27.9,0,0,0,28.18,45,27.9,27.9,0,1,0,54.3,11.37H126.22a10.75,10.75,0,1,1,0-5.49H146V190.62l-15.67,15.7-1.94.8H95.13a10.75,10.75,0,1,1,0-5.49h32.14l6.06-6L120.75,183h-9.16a10.75,10.75,0,1,1,0-5.49H123l.8.81,13.38,13.38,8.81-8.81V158H81a10.75,10.75,0,1,1,0-5.49h33.29L108,146.21a10.75,10.75,0,1,1,3.88-3.88L122,152.47h24v-28l-17.54-16.35H101.53a10.75,10.75,0,1,1,0-5.49h28l1.87.74L146,117V77.48H125.77A10.77,10.77,0,0,1,115.37,85.47Z" fill="#ed3540"/><path d="M245.58,128.46a27.9,27.9,0,0,0-28.65-44.61A27.9,27.9,0,0,0,164.2,65.6,27.36,27.36,0,0,0,162.8,72h20.11a10.75,10.75,0,1,1,0,5.49H162.67V117l14.6-13.61,1.86-.74h28a10.75,10.75,0,1,1,0,5.49h-27l-17.46,16.35v28h24l10.14-10.14a10.75,10.75,0,1,1,3.88,3.88l-6.26,6.26h33.29a10.75,10.75,0,1,1,0,5.49H162.67v24.93l8.8,8.81,13.39-13.38.8-.81H197.1a10.75,10.75,0,1,1,0,5.49h-9.17l-12.59,12.63,6.06,6h32.15a10.76,10.76,0,1,1,0,5.49H180.27l-1.94-.8-15.66-15.74v42.31h19.79a10.75,10.75,0,1,1,0,5.49H162.8a27.9,27.9,0,1,0,54.29-11.37,27.9,27.9,0,0,0,28.19-45,27.91,27.91,0,0,0,.3-53.6Z" fill="#ed3540"/></svg>